<svg width="12" height="16" viewBox="0 0 12 16" fill="none" xmlns="http://www.w3.org/2000/svg">
<mask id="mask0_2004_23406" style="mask-type:luminance" maskUnits="userSpaceOnUse" x="0" y="0" width="12" height="16">
<path d="M12 0H0V15.141H12V0Z" fill="white"/>
</mask>
<g mask="url(#mask0_2004_23406)">
<path d="M8.77899 9.08834C7.22586 9.08834 5.55432 8.61474 5.55432 7.57701C5.55432 6.53927 7.22586 6.06567 8.77899 6.06567C10.3321 6.06567 12.0001 6.53581 12.0001 7.57701C12.0001 8.61821 10.3286 9.08834 8.77899 9.08834ZM6.63732 7.57701C6.84279 7.74767 7.57759 8.04367 8.77899 8.04367C9.98032 8.04367 10.7117 7.74767 10.9171 7.57701C10.7117 7.40287 9.97686 7.11041 8.77899 7.11041C7.58106 7.11041 6.84279 7.40287 6.63732 7.57701Z" fill="#68CFEE"/>
<path d="M8.77899 11.0917C7.22586 11.0917 5.55432 10.6181 5.55432 9.58039H6.59905C6.60332 9.56206 6.60332 9.54299 6.59905 9.52466C6.68959 9.67786 7.44872 10.047 8.79286 10.047C10.1371 10.047 10.8823 9.67786 10.9833 9.52466C10.9789 9.54299 10.9789 9.56206 10.9833 9.58039H12.0279C12.0001 10.6181 10.3286 11.0917 8.77899 11.0917Z" fill="#68CFEE"/>
<path d="M8.7791 13.2327C7.22597 13.2327 5.5719 12.7661 5.5719 11.7283H6.61657C6.62203 11.7101 6.62203 11.6908 6.61657 11.6726C6.70717 11.8258 7.4663 12.1949 8.81043 12.1949C10.1546 12.1949 10.8998 11.8258 11.0008 11.6726C10.9954 11.6908 10.9954 11.7101 11.0008 11.7283H12.0455C12.0002 12.7661 10.3287 13.2327 8.7791 13.2327Z" fill="#68CFEE"/>
<path d="M8.77899 15.1412C7.22586 15.1412 5.55432 14.6676 5.55432 13.6299V7.57764H6.59905V13.5811C6.72785 13.7413 7.48006 14.086 8.77899 14.086C10.0779 14.086 10.8265 13.7378 10.9554 13.5811V7.57764H12.0001V13.6299C12.0001 14.6676 10.3286 15.1412 8.77899 15.1412Z" fill="#68CFEE"/>
<path d="M3.22461 11.1426C1.6715 11.1426 0 10.669 0 9.62779C0 8.58659 1.6715 8.11646 3.22461 8.11646C4.77773 8.11646 6.4492 8.59006 6.4492 9.62779C6.4492 10.6655 4.77773 11.1426 3.22461 11.1426ZM1.08299 9.62779C1.29193 9.80192 2.02321 10.0944 3.22461 10.0944C4.426 10.0944 5.15727 9.80192 5.36273 9.62779C5.15727 9.45712 4.426 9.16112 3.22461 9.16112C2.02321 9.16112 1.29193 9.45712 1.08299 9.62779Z" fill="#68CFEE"/>
<path d="M3.22461 13.2331C1.67151 13.2331 0 12.7664 0 11.7287H1.04469C1.04941 11.7104 1.04941 11.6913 1.04469 11.673C1.1213 11.8401 1.88044 12.1883 3.22461 12.1883C4.56877 12.1883 5.314 11.8193 5.415 11.666C5.41027 11.6843 5.41027 11.7035 5.415 11.7217H6.45967C6.4492 12.7664 4.77773 13.2331 3.22461 13.2331Z" fill="#68CFEE"/>
<path d="M3.22461 15.1406C1.6715 15.1406 0 14.667 0 13.6293V9.62817H1.04469V13.5806C1.17702 13.7408 1.92571 14.0855 3.22461 14.0855C4.52351 14.0855 5.2722 13.7373 5.40453 13.5806V9.62817H6.4492V13.6293C6.4492 14.667 4.77773 15.1406 3.22461 15.1406Z" fill="#68CFEE"/>
<path d="M2.91819 7.42693C2.84959 7.42707 2.78164 7.4136 2.71828 7.38727C2.65492 7.361 2.59741 7.32233 2.54907 7.27367L0.602462 5.32709C0.553609 5.27883 0.514822 5.22135 0.488349 5.15799C0.461876 5.09462 0.448242 5.02663 0.448242 4.95796C0.448242 4.88929 0.461876 4.8213 0.488349 4.75794C0.514822 4.69458 0.553609 4.6371 0.602462 4.58884C0.700849 4.49186 0.833442 4.4375 0.971582 4.4375C1.10973 4.4375 1.24232 4.49186 1.34071 4.58884L2.92864 6.17673L4.5897 4.60625C4.6908 4.51112 4.8256 4.46007 4.9644 4.46431C5.10314 4.46855 5.23454 4.52775 5.32967 4.62889C5.4248 4.73001 5.47587 4.86479 5.4716 5.00357C5.4674 5.14234 5.4082 5.27375 5.30707 5.36887L3.27687 7.28413C3.17974 7.37547 3.05153 7.42653 2.91819 7.42693Z" fill="#68CFEE"/>
<path d="M2.95985 7.44867C2.82131 7.44867 2.68845 7.3936 2.59049 7.29567C2.49253 7.19767 2.4375 7.0648 2.4375 6.92627V0.522347C2.4375 0.383813 2.49253 0.250947 2.59049 0.152993C2.68845 0.0550334 2.82131 0 2.95985 0C3.09838 0 3.23124 0.0550334 3.3292 0.152993C3.42716 0.250947 3.48219 0.383813 3.48219 0.522347V6.92627C3.48219 7.0648 3.42716 7.19767 3.3292 7.29567C3.23124 7.3936 3.09838 7.44867 2.95985 7.44867Z" fill="#68CFEE"/>
</g>
</svg>
