<svg width="18" height="21" viewBox="0 0 18 21" fill="none" xmlns="http://www.w3.org/2000/svg">
<g clip-path="url(#clip0_4_3065)">
<path d="M15.7351 17.0402L14.4751 15.5402V10.0877C14.4751 8.62518 13.9051 7.25268 12.8701 6.21768C12.3901 5.73768 11.8426 5.36268 11.2276 5.08518C11.1601 3.91518 10.1851 2.99268 9.00011 2.99268C7.81511 2.99268 6.84011 3.92268 6.77261 5.08518C5.86511 5.49018 5.09261 6.12768 4.51511 6.94518C3.87011 7.86768 3.52511 8.95518 3.52511 10.0802V15.5327L2.26511 17.0327C2.06261 17.2727 2.01761 17.6027 2.15261 17.8877C2.28761 18.1727 2.56511 18.3527 2.88011 18.3527H5.78261C6.07511 19.8677 7.42511 21.0077 9.00011 21.0077C10.5751 21.0077 11.9251 19.8677 12.2176 18.3527H15.1201C15.4351 18.3527 15.7126 18.1727 15.8476 17.8877C15.9826 17.6027 15.9376 17.2727 15.7351 17.0327V17.0402ZM9.00011 3.84018C9.60761 3.84018 10.1176 4.23018 10.3126 4.77018C9.88511 4.66518 9.45011 4.61268 9.00011 4.61268C8.55011 4.61268 8.11511 4.66518 7.68761 4.77018C7.87511 4.23018 8.39261 3.84018 9.00011 3.84018ZM6.65261 17.5127V18.3602H11.3551C11.0776 19.4027 10.1176 20.1677 9.00761 20.1677C7.89761 20.1677 6.93761 19.4027 6.66011 18.3602H5.81261V17.5127H2.99261L4.38761 15.8552V10.0877C4.38761 8.18268 5.58011 6.44268 7.36511 5.76768C7.89011 5.56518 8.44511 5.46768 9.01511 5.46768C9.58511 5.46768 10.1401 5.57268 10.6651 5.76768C11.2726 6.00018 11.8201 6.35268 12.2851 6.81768C13.1626 7.69518 13.6426 8.85768 13.6426 10.0877V15.8552L15.0376 17.5127H6.66761H6.65261Z" fill="white"/>
</g>
<circle cx="13" cy="4" r="4" fill="#F04438"/>
<defs>
<clipPath id="clip0_4_3065">
<rect width="18" height="18" fill="white" transform="translate(0 3)"/>
</clipPath>
</defs>
</svg>
