<svg width="15" height="12" viewBox="0 0 15 12" fill="none" xmlns="http://www.w3.org/2000/svg">
<path d="M7.53333 5.81333C7.88905 5.50542 8.17437 5.12459 8.36992 4.69668C8.56547 4.26877 8.66667 3.80381 8.66667 3.33333C8.66667 2.44928 8.31548 1.60143 7.69036 0.976311C7.06523 0.35119 6.21739 1.19274e-07 5.33333 1.19274e-07C4.44928 1.19274e-07 3.60143 0.35119 2.97631 0.976311C2.35119 1.60143 2 2.44928 2 3.33333C1.99999 3.80381 2.1012 4.26877 2.29675 4.69668C2.4923 5.12459 2.77762 5.50542 3.13333 5.81333C2.20009 6.23592 1.40831 6.91835 0.852654 7.77903C0.296997 8.63971 0.000981237 9.64221 0 10.6667C0 10.8435 0.0702379 11.013 0.195262 11.1381C0.320286 11.2631 0.489856 11.3333 0.666667 11.3333C0.843478 11.3333 1.01305 11.2631 1.13807 11.1381C1.2631 11.013 1.33333 10.8435 1.33333 10.6667C1.33333 9.6058 1.75476 8.58838 2.50491 7.83824C3.25505 7.08809 4.27247 6.66667 5.33333 6.66667C6.3942 6.66667 7.41162 7.08809 8.16176 7.83824C8.91191 8.58838 9.33333 9.6058 9.33333 10.6667C9.33333 10.8435 9.40357 11.013 9.5286 11.1381C9.65362 11.2631 9.82319 11.3333 10 11.3333C10.1768 11.3333 10.3464 11.2631 10.4714 11.1381C10.5964 11.013 10.6667 10.8435 10.6667 10.6667C10.6657 9.64221 10.3697 8.63971 9.81401 7.77903C9.25836 6.91835 8.46657 6.23592 7.53333 5.81333V5.81333ZM5.33333 5.33333C4.93777 5.33333 4.55109 5.21603 4.22219 4.99627C3.89329 4.77651 3.63695 4.46415 3.48557 4.0987C3.3342 3.73325 3.29459 3.33111 3.37176 2.94315C3.44893 2.55519 3.63941 2.19882 3.91912 1.91912C4.19882 1.63941 4.55519 1.44893 4.94315 1.37176C5.33111 1.29459 5.73325 1.3342 6.0987 1.48557C6.46415 1.63695 6.77651 1.89329 6.99627 2.22219C7.21604 2.55109 7.33333 2.93777 7.33333 3.33333C7.33333 3.86377 7.12262 4.37247 6.74755 4.74755C6.37247 5.12262 5.86377 5.33333 5.33333 5.33333ZM11.8267 5.54667C12.2533 5.06622 12.532 4.4727 12.6292 3.83756C12.7264 3.20242 12.638 2.55272 12.3745 1.96667C12.1111 1.38062 11.6839 0.883197 11.1443 0.534282C10.6048 0.185367 9.97587 -0.000171733 9.33333 1.19274e-07C9.15652 1.19274e-07 8.98695 0.070238 8.86193 0.195262C8.7369 0.320286 8.66667 0.489856 8.66667 0.666667C8.66667 0.843478 8.7369 1.01305 8.86193 1.13807C8.98695 1.2631 9.15652 1.33333 9.33333 1.33333C9.86377 1.33333 10.3725 1.54405 10.7475 1.91912C11.1226 2.29419 11.3333 2.8029 11.3333 3.33333C11.3324 3.68349 11.2395 4.02727 11.064 4.33028C10.8886 4.63329 10.6366 4.88492 10.3333 5.06C10.2345 5.11701 10.1519 5.19844 10.0936 5.29649C10.0352 5.39454 10.003 5.50593 10 5.62C9.99721 5.73318 10.0233 5.8452 10.0758 5.9455C10.1283 6.04581 10.2054 6.1311 10.3 6.19333L10.56 6.36667L10.6467 6.41333C11.4503 6.79448 12.1282 7.39733 12.6007 8.15088C13.0731 8.90442 13.3204 9.77729 13.3133 10.6667C13.3133 10.8435 13.3836 11.013 13.5086 11.1381C13.6336 11.2631 13.8032 11.3333 13.98 11.3333C14.1568 11.3333 14.3264 11.2631 14.4514 11.1381C14.5764 11.013 14.6467 10.8435 14.6467 10.6667C14.6521 9.64362 14.3959 8.63617 13.9023 7.74004C13.4087 6.84391 12.6942 6.08887 11.8267 5.54667V5.54667Z" fill="#85D1F0"/>
</svg>
