<svg width="19" height="19" viewBox="0 0 19 19" fill="none" xmlns="http://www.w3.org/2000/svg">
<path d="M9.33331 9.91661C6.86775 9.91661 4.86108 7.90995 4.86108 5.44439C4.86108 2.97883 6.86775 0.972168 9.33331 0.972168C11.7989 0.972168 13.8055 2.97883 13.8055 5.44439C13.8055 7.90995 11.7989 9.91661 9.33331 9.91661ZM9.33331 2.13883C7.51331 2.13883 6.02775 3.62439 6.02775 5.44439C6.02775 7.26439 7.51331 8.74995 9.33331 8.74995C11.1533 8.74995 12.6389 7.26439 12.6389 5.44439C12.6389 3.62439 11.1533 2.13883 9.33331 2.13883Z" fill="white"/>
<path d="M2.65243 17.6946C2.33354 17.6946 2.06909 17.4302 2.06909 17.1113C2.06909 13.7902 5.32798 11.0835 9.33353 11.0835C10.1191 11.0835 10.8891 11.1846 11.6357 11.3946C11.9469 11.4802 12.1258 11.7991 12.0402 12.1102C11.9547 12.4213 11.6358 12.6002 11.3246 12.5146C10.6869 12.3357 10.018 12.2502 9.33353 12.2502C5.97353 12.2502 3.23576 14.4279 3.23576 17.1113C3.23576 17.4302 2.97131 17.6946 2.65243 17.6946Z" fill="white"/>
<path d="M13.9999 17.6946C12.7088 17.6946 11.4954 17.0101 10.8421 15.8979C10.4921 15.3379 10.3054 14.6768 10.3054 14.0001C10.3054 12.8646 10.811 11.8145 11.6899 11.1145C12.3432 10.5934 13.1676 10.3057 13.9999 10.3057C16.0376 10.3057 17.6943 11.9623 17.6943 14.0001C17.6943 14.6768 17.5076 15.3379 17.1576 15.9057C16.9632 16.2323 16.7143 16.5279 16.4187 16.7768C15.7732 17.3679 14.9099 17.6946 13.9999 17.6946ZM13.9999 11.4723C13.4243 11.4723 12.8799 11.6668 12.421 12.0323C11.8221 12.5068 11.4721 13.2301 11.4721 14.0001C11.4721 14.459 11.5965 14.9101 11.8376 15.299C12.2888 16.0612 13.121 16.5279 13.9999 16.5279C14.6143 16.5279 15.2054 16.3023 15.6565 15.8979C15.8588 15.7268 16.0299 15.5245 16.1543 15.3068C16.4032 14.9101 16.5276 14.459 16.5276 14.0001C16.5276 12.6079 15.3921 11.4723 13.9999 11.4723Z" fill="white"/>
<path d="M13.5567 15.3532C13.4089 15.3532 13.2611 15.2987 13.1445 15.1821L12.3745 14.4121C12.1489 14.1865 12.1489 13.8131 12.3745 13.5876C12.6 13.362 12.9734 13.362 13.1989 13.5876L13.5723 13.961L14.8167 12.8098C15.05 12.592 15.4234 12.6076 15.6411 12.841C15.8589 13.0743 15.8434 13.4476 15.61 13.6654L13.9534 15.1976C13.8367 15.2987 13.6967 15.3532 13.5567 15.3532Z" fill="white"/>
</svg>
