<svg width="7" height="7" viewBox="0 0 7 7" fill="none" xmlns="http://www.w3.org/2000/svg">
<g clip-path="url(#clip0_4_54072)">
<path d="M5.235 1.2006C5.29938 1.35631 5.42297 1.48008 5.57858 1.5447L6.12424 1.77072C6.27996 1.83522 6.40369 1.95894 6.46819 2.11466C6.53269 2.27038 6.53269 2.44535 6.46819 2.60107L6.24233 3.14634C6.1778 3.30213 6.17771 3.47728 6.24253 3.633L6.468 4.1781C6.49998 4.25523 6.51644 4.3379 6.51645 4.4214C6.51647 4.50489 6.50003 4.58757 6.46808 4.6647C6.43613 4.74184 6.38929 4.81193 6.33024 4.87096C6.27119 4.92999 6.20109 4.9768 6.12394 5.00873L5.57867 5.23459C5.42296 5.29897 5.29919 5.42255 5.23458 5.57817L5.00856 6.12383C4.94405 6.27955 4.82033 6.40327 4.66461 6.46777C4.50889 6.53228 4.33392 6.53228 4.1782 6.46777L3.63293 6.24192C3.4772 6.17757 3.3023 6.1777 3.14667 6.24228L2.60101 6.46798C2.44537 6.53233 2.27056 6.53228 2.11496 6.46783C1.95936 6.40338 1.83571 6.2798 1.77116 6.12424L1.54508 5.57842C1.48069 5.42271 1.35711 5.29894 1.2015 5.23432L0.655837 5.0083C0.500182 4.94383 0.376498 4.82019 0.311972 4.66455C0.247445 4.50892 0.247358 4.33404 0.311728 4.17834L0.537586 3.63307C0.60193 3.47734 0.601798 3.30244 0.537221 3.14681L0.311687 2.60075C0.279711 2.52363 0.263246 2.44095 0.263233 2.35746C0.263219 2.27397 0.279658 2.19129 0.311609 2.11415C0.343561 2.03702 0.390399 1.96693 0.449447 1.9079C0.508495 1.84887 0.578595 1.80206 0.655743 1.77013L1.20101 1.54427C1.35659 1.47994 1.48028 1.35652 1.54495 1.20108L1.77097 0.655422C1.83547 0.4997 1.95919 0.375979 2.11491 0.311476C2.27064 0.246974 2.4456 0.246974 2.60133 0.311476L3.1466 0.537334C3.30232 0.601678 3.47723 0.601546 3.63286 0.536969L4.17875 0.311827C4.33445 0.24736 4.50938 0.247374 4.66507 0.311863C4.82076 0.376353 4.94447 0.500038 5.00898 0.655721L5.23507 1.20154L5.235 1.2006Z" fill="#FDB022"/>
<path fill-rule="evenodd" clip-rule="evenodd" d="M4.717 2.50089C4.76229 2.42976 4.77746 2.34355 4.75919 2.26124C4.74091 2.17892 4.69068 2.10723 4.61955 2.06195C4.54842 2.01666 4.46222 2.00149 4.3799 2.01977C4.29759 2.03804 4.2259 2.08827 4.18061 2.1594L2.93625 4.11471L2.36681 3.40292C2.31417 3.33707 2.23752 3.29483 2.15374 3.28549C2.06995 3.27616 1.98589 3.30049 1.92004 3.35313C1.85419 3.40578 1.81195 3.48242 1.80262 3.56621C1.79328 3.65 1.81761 3.73406 1.87025 3.79991L2.71763 4.85912C2.74921 4.89865 2.78977 4.93006 2.83594 4.95075C2.8821 4.97144 2.93254 4.98081 2.98306 4.97807C3.03358 4.97534 3.08271 4.96058 3.12638 4.93503C3.17004 4.90947 3.20697 4.87386 3.2341 4.83116L4.717 2.50089Z" fill="white"/>
</g>
<defs>
<clipPath id="clip0_4_54072">
<rect width="6.77898" height="6.77898" fill="white"/>
</clipPath>
</defs>
</svg>
