<svg width="20" height="18" viewBox="0 0 20 18" fill="none" xmlns="http://www.w3.org/2000/svg">
<path d="M1.52539 0.5H10.3584C10.9387 0.5 11.3848 0.953075 11.3848 1.48535V4.09863H18.4746C19.0548 4.09876 19.5 4.55178 19.5 5.08398V16.5146C19.5 17.0469 19.0548 17.4999 18.4746 17.5H1.52539C0.9452 17.4999 0.5 17.0469 0.5 16.5146V1.48535C0.5 0.953123 0.945199 0.500106 1.52539 0.5ZM0.979492 17.0605H19.0186V4.53809H0.979492V17.0605ZM0.979492 4.09863H10.9023V0.939453H0.979492V4.09863Z" fill="#A7B1BC" stroke="#A7B1BC"/>
<path d="M9.1416 9.14014V13.4614H18.8594V13.9009H9.6875C9.10742 13.9008 8.66228 13.4486 8.66211 12.9165V9.14014H9.1416Z" fill="#A7B1BC" stroke="#A7B1BC"/>
<path d="M15.5579 11.5201V10.0806H12.5943V11.5201H15.5579Z" fill="#A7B1BC"/>
<path d="M19.4739 7.36865L19.263 8.64028H9.61633L9.82724 7.36865H19.4739Z" fill="#A7B1BC"/>
</svg>
